<svg xmlns="http://www.w3.org/2000/svg" version="1.1" xmlns:xlink="http://www.w3.org/1999/xlink" xmlns:svgjs="http://svgjs.dev/svgjs" viewBox="0 0 1422 800"><defs><filter id="uuunion-blur" x="-100%" y="-100%" width="400%" height="400%" color-interpolation-filters="sRGB">
        <feGaussianBlur in="SourceGraphic" stdDeviation="7.5 0" result="blur"></feGaussianBlur>
        <feDropShadow stdDeviation="12.307692307692308" in="blur" dx="10" dy="10" flood-color="#111e90" flood-opacity="0.25" x="0%" y="0%" width="100%" height="100%"></feDropShadow>
      </filter><filter id="uuunion-blur2" x="-100%" y="-100%" width="400%" height="400%" color-interpolation-filters="sRGB">
        <feGaussianBlur in="SourceGraphic" stdDeviation="7.5 0" result="blur"></feGaussianBlur>
        <feDropShadow stdDeviation="12.307692307692308" in="blur" dx="-10" dy="-10" flood-color="#111e90" flood-opacity="0.25" x="0%" y="0%" width="100%" height="100%"></feDropShadow>
      </filter><linearGradient gradientTransform="rotate(0, 0.5, 0.5)" x1="50%" y1="0%" x2="50%" y2="100%" id="uuunion-grad"><stop stop-color="#09104d" offset="10%"></stop><stop stop-color="#111e90" offset="90%"></stop></linearGradient><linearGradient gradientTransform="rotate(135, 0.5, 0.5)" x1="50%" y1="0%" x2="50%" y2="100%" id="uuunion-grad2"><stop stop-color="#09104d" offset="25%"></stop><stop stop-color="#111e90" offset="100%"></stop></linearGradient><linearGradient gradientTransform="rotate(333, 0.5, 0.5)" x1="50%" y1="0%" x2="50%" y2="100%" id="uuunion-grad3"><stop stop-color="#09104d" offset="0%"></stop><stop stop-color="#111e90" offset="75%"></stop></linearGradient></defs><path d="M-131.54 -86.06Q-118.55 -84.53 -105.56 -82.79 -92.57 -80.91 -79.58 -78.99 -66.59 -77.12 -53.6 -75.39 -40.61 -73.87 -27.63 -72.65 -14.64 -71.77 -1.65 -71.29 11.33 -71.22 24.32 -71.57 37.31 -72.32 50.3 -73.43 63.29 -74.86 76.28 -76.53 89.27 -78.36 102.26 -80.28 115.25 -82.18 128.23 -83.97 141.22 -85.58 154.21 -86.92 167.2 -87.93 180.19 -88.57 193.18 -88.79 206.17 -88.6 219.16 -88 232.15 -87.02 245.14 -85.7 258.13 -84.11 271.12 -82.33 284.11 -80.43 297.09 -78.52 310.08 -76.67 323.07 -74.99 336.06 -73.54 349.05 -72.39 362.04 -71.61 375.03 -71.23 388.02 -71.27 401.01 -71.72 414 -72.56 426.99 -73.76 439.98 -75.25 452.97 -76.97 465.96 -78.84 478.94 -80.76 491.93 -82.64 504.92 -84.4 517.91 -85.94 530.9 -87.21 543.89 -88.13 556.88 -88.66 569.87 -88.79 582.86 -88.49 595.85 -87.79 608.84 -86.72 621.83 -85.33 634.82 -83.68 647.8 -81.86 660.79 -79.95 673.78 -78.05 686.77 -76.23 699.76 -74.6 712.75 -73.22 725.74 -72.16 738.73 -71.48 751.72 -71.2 764.71 -71.34 777.7 -71.89 790.69 -72.83 803.68 -74.11 816.67 -75.66 829.65 -77.43 842.64 -79.31 855.63 -81.23 868.62 -83.09 881.61 -84.8 894.6 -86.29 907.59 -87.47 920.58 -88.3 933.57 -88.73 946.56 -88.75 959.55 -88.35 972.54 -87.56 985.53 -86.4 998.52 -84.94 1011.5 -83.24 1024.49 -81.39 1037.48 -79.47 1050.47 -77.58 1063.46 -75.81 1076.45 -74.23 1089.44 -72.92 1102.43 -71.96 1115.42 -71.37 1128.41 -71.2 1141.4 -71.44 1154.39 -72.09 1167.38 -73.12 1180.37 -74.47 1193.36 -76.09 1206.34 -77.89 1219.33 -79.79 1232.32 -81.71 1245.31 -83.54 1258.3 -85.2 1271.29 -86.61 1284.28 -87.71 1297.27 -88.45 1310.26 -88.78 1323.25 -88.69 1336.24 -88.19 1349.23 -87.3 1362.22 -86.06 1375.21 -84.53 1388.2 -82.79 1401.18 -80.92 1414.17 -79 1427.16 -77.12 1440.15 -75.39 1453.14 -73.87 1466.13 -72.65 1479.12 -71.77 1492.11 -71.29 1505.1 -71.22 1518.09 -71.57 1531.08 -72.31 1533.96 -57.12 1538.79 -41.92 1545.25 -26.73 1552.92 -11.53 1561.33 3.66 1569.91 18.85 1578.13 34.05 1585.46 49.25 1591.41 64.44 1595.62 79.64 1597.8 94.84 1597.83 110.03 1595.69 125.23 1591.53 140.42 1585.61 155.62 1578.32 170.82 1570.11 186.01 1561.53 201.21 1553.12 216.41 1545.41 231.6 1538.92 246.8 1534.05 262 1531.12 277.19 1530.32 292.39 1531.69 307.59 1535.15 322.78 1540.48 337.98 1547.34 353.17 1555.28 368.37 1563.79 383.57 1572.33 398.76 1580.34 413.96 1587.32 429.16 1592.81 444.35 1596.46 459.55 1598.04 474.75 1597.44 489.94 1594.7 505.14 1590 520.33 1583.65 535.53 1576.04 550.73 1567.67 565.92 1559.08 581.12 1550.82 596.32 1543.41 611.51 1537.35 626.71 1533.01 641.91 1530.67 657.1 1530.49 672.3 1532.48 687.49 1536.5 702.69 1542.31 717.89 1549.52 733.08 1557.68 748.28 1566.25 763.48 1574.7 778.67 1582.46 793.87 1589.06 809.07 1594.05 824.26 1597.13 839.46 1598.09 854.65 1596.87 869.85 1593.55 885.05 1588.34 900.24 1574.76 902.22 1561.18 903.13 1547.6 902.95 1534.02 901.67 1520.44 899.36 1506.86 896.14 1493.27 892.14 1479.69 887.56 1466.11 882.63 1452.53 877.57 1438.95 872.62 1425.37 868.03 1411.79 864.01 1398.21 860.74 1384.63 858.39 1371.05 857.07 1357.47 856.84 1343.89 857.71 1330.31 859.64 1316.73 862.54 1303.15 866.27 1289.57 870.66 1275.99 875.48 1262.41 880.52 1248.83 885.54 1235.25 890.29 1221.66 894.55 1208.08 898.12 1194.5 900.83 1180.92 902.55 1167.34 903.19 1153.76 902.73 1140.18 901.19 1126.6 898.64 1113.02 895.2 1099.44 891.04 1085.86 886.36 1072.28 881.37 1058.7 876.31 1045.12 871.43 1031.54 866.96 1017.96 863.11 1004.38 860.06 990.8 857.96 977.22 856.91 963.64 856.96 950.06 858.1 936.48 860.28 922.89 863.4 909.31 867.32 895.73 871.83 882.15 876.73 868.57 881.79 854.99 886.76 841.41 891.41 827.83 895.52 814.25 898.89 800.67 901.36 787.09 902.81 773.51 903.18 759.93 902.45 746.35 900.64 732.77 897.86 719.19 894.22 705.61 889.91 692.03 885.13 678.45 880.1 664.87 875.07 651.29 870.27 637.71 865.94 624.13 862.27 610.55 859.45 596.96 857.6 583.38 856.82 569.8 857.14 556.22 858.55 542.64 860.98 529.06 864.31 515.48 868.39 501.9 873.03 488.32 877.99 474.74 883.05 461.16 887.96 447.58 892.5 434 896.44 420.42 899.59 406.84 901.82 393.26 903.01 379.68 903.1 366.1 902.09 352.52 900.03 338.94 897.02 325.36 893.2 311.78 888.75 298.2 883.89 284.62 878.84 271.04 873.84 257.45 869.14 243.87 864.95 230.29 861.48 216.71 858.89 203.13 857.3 189.55 856.8 175.97 857.39 162.39 859.07 148.81 861.73 135.23 865.27 121.65 869.51 108.07 874.24 94.49 879.25 80.91 884.3 67.33 889.14 53.75 893.54 40.17 897.3 26.59 900.24 13.01 902.22 -0.56 903.13 -14.14 902.95 -27.72 901.67 -41.3 899.37 -54.88 896.14 -68.46 892.14 -82.04 887.57 -95.62 882.63 -109.2 877.57 -122.79 872.63 -136.37 868.03 -149.95 864.01 -151.62 849.16 -152.69 834.32 -153.08 819.47 -152.77 804.63 -151.78 789.78 -150.18 774.94 -148.06 760.09 -145.56 745.25 -142.85 730.4 -140.09 715.56 -137.47 700.71 -135.15 685.87 -133.28 671.02 -131.99 656.18 -131.35 641.33 -131.41 626.49 -132.16 611.64 -133.55 596.8 -135.5 581.95 -137.88 567.11 -140.54 552.26 -143.3 537.42 -145.99 522.57 -148.44 507.73 -150.48 492.88 -151.99 478.04 -152.87 463.19 -153.06 448.35 -152.56 433.5 -151.38 418.66 -149.62 403.82 -147.38 388.97 -144.8 374.13 -142.05 359.28 -139.32 344.44 -136.77 329.59 -134.56 314.75 -132.85 299.9 -131.74 285.06 -131.29 270.21 -131.55 255.37 -132.5 240.52 -134.06 225.68 -136.15 210.83 -138.62 195.99 -141.33 181.14 -144.09 166.3 -146.72 151.45 -149.07 136.61 -150.97 121.76 -152.31 106.92 -153 92.07 -152.99 77.23 -152.29 62.38 -150.93 47.54 -149.02 32.69 -146.67 17.85 -144.02 3 -141.26 -11.83 -138.56 -26.68 -136.09 -41.52 -134.02 -56.37 -132.47 -71.21 -131.54 -86.06" fill="url(#uuunion-grad)"></path><path d="M-131.55 -86.06Q-132.48 -71.21 -134.03 -56.37 -136.1 -41.52 -138.57 -26.68 -141.27 -11.84 -144.03 3 -146.68 17.84 -149.03 32.69 -150.94 47.53 -152.3 62.38 -153 77.22 -153.01 92.07 -152.32 106.91 -150.98 121.76 -149.08 136.6 -146.73 151.45 -144.1 166.29 -141.34 181.14 -138.63 195.98 -136.16 210.83 -134.07 225.67 -132.51 240.52 -131.56 255.36 -131.3 270.21 -131.75 285.05 -132.86 299.9 -134.57 314.74 -136.78 329.59 -139.33 344.43 -142.06 359.28 -144.81 374.12 -147.39 388.97 -138.39 390.77 -129.39 392.76 -120.39 394.91 -111.39 397.17 -102.39 399.49 -93.39 401.81 -84.39 404.1 -75.4 406.3 -66.4 408.37 -57.4 410.26 -48.4 411.93 -39.4 413.35 -30.4 414.49 -21.4 415.32 -4.4 415.95 -1.39 415.99 10.15 412.46 21.69 408.42 33.2 403.9 44.69 398.96 56.16 393.64 67.59 388.04 79.01 382.23 90.39 376.29 101.74 370.34 113.06 364.45 124.35 358.71 135.61 353.22 146.84 348.05 158.03 343.27 169.2 338.92 180.33 335.05 191.43 331.67 202.5 328.79 213.54 326.41 224.55 324.49 235.53 322.98 246.48 321.85 257.41 321.01 268.32 320.39 279.2 319.9 290.07 319.46 300.91 318.99 311.74 318.38 322.55 317.57 333.36 316.47 344.15 315.02 354.93 313.17 365.71 310.88 376.48 308.12 387.26 304.88 398.03 301.18 408.81 297.03 419.6 292.47 430.4 287.56 441.21 282.34 452.03 276.89 462.87 271.3 473.73 265.64 484.61 259.99 495.51 254.44 506.44 249.07 517.39 243.96 528.38 239.15 539.4 234.72 550.45 230.69 561.53 227.1 572.65 223.96 583.81 221.26 595 218.99 606.24 217.12 617.51 215.6 628.83 214.38 640.18 213.39 651.58 212.57 663.01 211.82 674.49 211.08 686 210.27 697.56 209.31 709.16 208.13 720.79 206.67 732.46 204.88 744.16 202.71 755.9 200.13 767.67 197.13 779.47 193.72 791.3 189.89 803.16 185.69 815.04 181.14 826.94 176.29 838.85 171.21 850.79 165.97 862.73 160.62 874.69 155.25 886.65 149.93 898.62 144.73 910.58 139.71 922.54 134.95 934.5 130.49 946.44 126.38 958.37 122.64 970.29 119.28 982.18 116.33 994.05 113.76 1005.88 111.55 1017.69 109.68 1029.46 108.09 1041.19 106.74 1052.89 105.57 1064.53 104.5 1076.13 103.48 1087.68 102.43 1099.17 101.28 1110.6 99.96 1121.98 98.43 1133.29 96.63 1144.54 94.52 1155.72 92.07 1166.84 89.25 1177.88 86.07 1188.86 82.52 1199.76 78.63 1210.59 74.41 1221.34 69.92 1232.02 65.2 1242.63 60.29 1253.16 55.27 1263.61 50.2 1273.99 45.13 1284.3 40.14 1294.54 35.29 1304.7 30.62 1314.8 26.19 1324.82 22.05 1334.79 18.22 1344.69 14.71 1354.53 11.55 1364.31 8.73 1374.04 6.24 1383.72 4.05 1393.35 2.12 1402.93 0.43 1412.48 -1.08 1422 -2.47 1413.18 -19.91 1405.13 -37.34 1398.56 -54.78 1394.03 -72.21 1391.95 -89.65 1392.49 -107.08 1395.6 -124.52 1401.02 -141.95 1388.94 -143.45 1376.85 -144.8 1364.76 -145.96 1352.67 -146.88 1340.59 -147.52 1328.5 -147.85 1316.41 -147.86 1304.32 -147.56 1292.23 -146.94 1280.15 -146.05 1268.06 -144.91 1255.97 -143.57 1243.88 -142.08 1231.8 -140.51 1219.71 -138.92 1207.62 -137.37 1195.53 -135.93 1183.44 -134.66 1171.36 -133.6 1159.27 -132.8 1147.18 -132.29 1135.09 -132.1 1123.01 -132.22 1110.92 -132.67 1098.83 -133.41 1086.74 -134.41 1074.65 -135.65 1062.57 -137.06 1050.48 -138.59 1038.39 -140.17 1026.3 -141.75 1014.22 -143.26 1002.13 -144.64 990.04 -145.82 977.95 -146.78 965.86 -147.45 953.78 -147.82 941.69 -147.88 929.6 -147.61 917.51 -147.04 905.42 -146.18 893.34 -145.07 881.25 -143.75 869.16 -142.28 857.07 -140.72 844.99 -139.12 832.9 -137.57 820.81 -136.11 808.72 -134.81 796.63 -133.72 784.55 -132.89 772.46 -132.34 760.37 -132.1 748.28 -132.19 736.2 -132.59 724.11 -133.29 712.02 -134.27 699.93 -135.48 687.84 -136.87 675.76 -138.38 663.67 -139.97 651.58 -141.55 639.49 -143.07 627.41 -144.47 615.32 -145.68 603.23 -146.67 591.14 -147.38 579.05 -147.79 566.97 -147.89 554.88 -147.66 542.79 -147.13 530.7 -146.3 518.62 -145.22 506.53 -143.93 494.44 -142.47 482.35 -140.92 470.26 -139.33 458.18 -137.76 446.09 -136.29 434 -134.97 421.91 -133.85 409.82 -132.98 397.74 -132.39 385.65 -132.12 373.56 -132.16 361.47 -132.52 349.39 -133.19 337.3 -134.13 325.21 -135.31 313.12 -136.68 301.03 -138.18 288.95 -139.76 276.86 -141.35 264.77 -142.88 252.68 -144.3 240.6 -145.54 228.51 -146.56 216.42 -147.3 204.33 -147.76 192.24 -147.89 180.16 -147.71 168.07 -147.21 155.98 -146.42 143.89 -145.37 131.81 -144.1 119.72 -142.67 107.63 -141.12 95.54 -139.53 83.45 -137.96 71.37 -136.47 59.28 -135.13 47.19 -133.98 35.1 -133.07 23.01 -132.45 10.93 -132.13 -1.15 -132.14 -13.24 -132.46 -25.33 -133.09 -37.41 -133.99 -49.5 -135.15 -61.59 -136.49 -73.68 -137.98 -85.77 -139.56 -97.85 -141.15 -109.94 -142.69 -122.03 -144.12 -137.83 -138.39 -137.52 -116.31 -134.18 -101.2 -131.55 -86.06" fill="url(#uuunion-grad2)" filter="url(#uuunion-blur)"></path><path d="M1399.15 316.33Q1407.86 318.45 1416.57 320.6 1425.28 322.74 1433.99 324.82 1442.7 326.8 1451.41 328.64 1460.12 330.29 1468.83 331.73 1486.25 333.68 1503.68 334.76 1521.1 334.29 1538.52 332.91 1546.11 350.64 1555.28 368.37 1565.22 386.1 1575.08 403.83 1583.99 421.56 1591.17 439.29 1595.99 457.02 1598.04 474.75 1597.13 492.47 1593.34 510.2 1587.01 527.93 1578.69 545.66 1569.1 563.39 1559.08 581.12 1549.51 598.85 1541.22 616.58 1534.94 634.31 1531.21 652.04 1530.37 669.77 1532.48 687.49 1537.35 705.22 1544.58 722.95 1553.51 740.68 1563.38 758.41 1573.32 776.14 1582.46 793.87 1590.01 811.6 1595.3 829.33 1597.88 847.06 1597.51 864.79 1594.24 882.51 1588.34 900.24 1575.88 902.09 1563.42 903.06 1550.97 903.1 1538.51 902.21 1526.05 900.44 1513.6 897.85 1501.14 894.54 1488.68 890.65 1476.23 886.33 1463.77 881.76 1451.31 877.12 1438.86 872.59 1426.4 868.36 1413.94 864.6 1401.49 861.45 1389.03 859.05 1376.57 857.48 1364.12 856.82 1351.66 857.08 1339.2 858.26 1326.75 860.32 1314.29 863.16 1301.83 866.67 1289.38 870.72 1276.92 875.14 1264.46 879.76 1252.01 884.38 1239.55 888.83 1227.09 892.92 1214.64 896.5 1202.18 899.42 1189.72 901.55 1177.27 902.83 1164.81 903.19 1152.35 902.62 1139.89 901.15 1127.44 898.82 1114.98 895.75 1102.52 892.04 1090.07 887.85 1077.61 883.35 1065.15 878.71 1052.7 874.12 1040.24 869.77 1027.78 865.83 1015.33 862.45 1002.87 859.78 990.41 857.92 977.96 856.94 965.5 856.89 953.04 857.76 940.59 859.52 928.13 862.1 915.67 865.4 903.22 869.28 890.76 873.59 878.3 878.16 865.85 882.8 853.39 887.33 840.93 891.57 828.48 895.34 816.02 898.5 803.56 900.91 791.11 902.49 778.65 903.17 766.19 902.92 753.74 901.75 741.28 899.71 728.82 896.88 716.37 893.38 703.91 889.33 691.45 884.92 679 880.31 666.54 875.68 654.08 871.23 641.62 867.13 629.17 863.54 616.71 860.61 604.25 858.46 591.8 857.17 579.34 856.8 566.88 857.35 554.43 858.82 541.97 861.12 529.51 864.19 517.06 867.89 504.6 872.07 492.14 876.57 479.69 881.21 467.23 885.8 454.77 890.16 442.32 894.1 429.86 897.49 417.4 900.17 404.95 902.05 392.49 903.04 380.03 903.11 367.58 902.25 355.12 900.51 342.66 897.94 330.21 894.65 317.75 890.77 305.29 886.47 292.84 881.9 280.38 877.26 267.92 872.73 255.47 868.49 243.01 864.7 230.55 861.54 218.1 859.11 205.64 857.52 193.18 856.82 180.73 857.06 168.27 858.21 155.81 860.24 143.35 863.06 130.9 866.56 118.44 870.59 105.98 875 93.53 879.61 81.07 884.24 68.61 888.7 56.16 892.8 43.7 896.4 31.24 899.34 18.79 901.5 -0.28 897.92 -7.5 882.89 -7.93 872.74 -8.15 862.59 -8.17 852.44 -7.98 842.29 -7.05 827.07 -6 822 7.2 815.19 20.41 807.5 33.63 798.99 46.84 789.75 60.03 779.93 73.18 769.67 86.28 759.15 99.34 748.54 112.33 738.03 125.25 727.8 138.1 718.01 150.88 708.8 163.58 700.29 176.2 692.57 188.75 685.7 201.23 679.69 213.64 674.52 225.99 670.15 238.29 666.48 250.54 663.4 262.75 660.78 274.94 658.45 287.11 656.26 299.28 654.03 311.46 651.59 323.65 648.79 335.87 645.48 348.13 641.56 360.44 636.92 372.8 631.51 385.23 625.29 397.73 618.29 410.31 610.52 422.97 602.08 435.71 593.04 448.53 583.54 461.43 573.72 474.42 563.73 487.48 553.72 500.61 543.86 513.8 534.29 527.04 525.15 540.33 516.55 553.65 508.59 566.99 501.33 580.33 494.81 593.67 489.02 606.98 483.95 620.25 479.54 633.48 475.7 646.63 472.32 659.7 469.29 672.68 466.45 685.55 463.68 698.3 460.82 710.92 457.73 723.4 454.28 735.74 450.36 747.93 445.88 759.96 440.77 771.84 434.99 783.57 428.53 795.15 421.4 806.59 413.65 816.16 410.89 825.73 407.82 835.28 404.5 844.82 400.98 854.34 397.31 863.86 393.55 873.36 389.77 882.84 386.04 892.32 382.41 901.78 378.95 911.23 375.71 920.67 372.74 930.1 370.09 939.51 367.78 948.92 365.85 958.31 364.31 967.68 363.17 977.05 362.42 986.4 362.05 995.75 362.04 1005.08 362.35 1014.4 362.95 1023.71 363.79 1033.01 364.81 1042.29 365.95 1051.57 367.16 1060.84 368.37 1070.09 369.52 1079.34 370.56 1088.58 371.41 1097.81 372.03 1107.02 372.38 1116.23 372.41 1125.44 372.09 1134.63 371.4 1143.81 370.32 1152.99 368.86 1162.16 367.01 1171.32 364.8 1180.48 362.24 1189.63 359.38 1198.77 356.26 1207.91 352.92 1217.04 349.41 1226.17 345.8 1235.29 342.14 1244.41 338.5 1253.52 334.93 1262.64 331.5 1271.74 328.25 1280.85 325.25 1289.95 322.52 1299.05 320.12 1308.15 318.06 1317.25 316.37 1326.34 315.06 1335.44 314.13 1344.54 313.56 1353.64 313.35 1362.73 313.46 1371.83 313.86 1380.94 314.5 1390.04 315.34 1399.15 316.33" fill="url(#uuunion-grad3)" filter="url(#uuunion-blur2)"></path></svg>