<svg xmlns="http://www.w3.org/2000/svg" version="1.1" xmlns:xlink="http://www.w3.org/1999/xlink" xmlns:svgjs="http://svgjs.dev/svgjs" viewBox="0 0 800 800" opacity="1"><defs><linearGradient x1="50%" y1="0%" x2="50%" y2="100%" id="uundulate-grad"><stop stop-color="hsl(55, 100%, 83%)" stop-opacity="1" offset="45%"></stop><stop stop-color="hsl(55, 100%, 60%)" stop-opacity="1" offset="100%"></stop></linearGradient></defs><g stroke-width="7" stroke="url(#uundulate-grad)" fill="none"><path d="M3017.591979683224 -652.7982326961064C3230.79048817652 72.44349742102554 2984.0318386781673 1355.2872764125727 2516.9970812800757 1949.6842031451752C2049.962323881986 2544.081129877777 1775.2384901321157 2300.468310565292 775.8251441723919 2200.307015620382C-223.58820178733185 2100.1457206754717 -2096.4403029453256 2093.964817407236 -2280.1869793265996 1468.9099874096073C-2463.933655707873 843.8551574119788 -892.3737399241418 -174.87573319601916 -106.1589024577138 -799.9561683682407C680.0559350087142 -1425.0366035404625 842.8628067328873 -1562.1340046820778 1493.644240512248 -1531.4761014170517C2144.4256742916095 -1500.8181981520256 2804.3934711899283 -1378.0399628132382 3017.591979683224 -652.7982326961064C3230.79048817652 72.44349742102554 2984.0318386781673 1355.2872764125727 2516.9970812800757 1949.6842031451752 "></path><path d="M2983.5972683437403 -639.1256536163478C3194.0269650384216 76.69735273302922 2950.472973325762 1342.8808229065044 2489.503602387387 1929.5583090321898C2028.5342314490117 2516.235795157875 1757.378239695894 2275.786778693604 770.9442878395425 2176.9262797869396C-215.4896640168081 2078.065780880275 -2064.019010614309 2071.965149083055 -2245.3793665230987 1455.0279142802005C-2426.7397224318884 838.0906794773468 -875.5896756843092 -167.4099398240537 -99.5854205226401 -784.3724472667659C676.4188346390292 -1401.3349547094783 837.1113314057452 -1536.6518701219818 1479.4410582529067 -1506.3921214448133C2121.7707851000678 -1476.1323727676445 2773.167571649058 -1354.9486599657246 2983.5972683437403 -639.1256536163478C3194.0269650384216 76.69735273302922 2950.472973325762 1342.8808229065044 2489.503602387387 1929.5583090321898 "></path><path d="M2949.6025570042566 -625.4530745365892C3157.2634419003234 80.9512080450329 2916.914107973357 1330.474369400436 2462.010123494697 1909.4324149192043C2007.1061390160376 2488.390460437973 1739.5179892596707 2251.105246821916 766.0634315066932 2153.545543953497C-207.39112624628524 2055.9858410850775 -2031.5977182832921 2049.965480758874 -2210.571753719598 1441.1458411507942C-2389.545789155903 832.3262015427144 -858.8056114444767 -159.94414645208826 -93.01193858756596 -768.7887261652913C672.7817342693443 -1377.6333058784942 831.3598560786036 -1511.1697355618858 1465.237875993565 -1481.3081414725748C2099.115895908528 -1451.4465473832634 2741.941672108189 -1331.857357118211 2949.6025570042566 -625.4530745365892C3157.2634419003234 80.9512080450329 2916.914107973357 1330.474369400436 2462.010123494697 1909.4324149192043 "></path><path d="M2915.607845664773 -611.7802513162051C3120.499918762226 85.2053074976618 2883.3552426209517 1318.068160034993 2434.5166446020075 1889.3067649468449C1985.6780465830634 2460.545369858696 1721.6577388234473 2226.4239590908533 761.1825751738434 2130.16505226068C-199.29258847576148 2033.9061454305065 -1999.1764259522752 2027.9660565753188 -2175.764140916097 1427.264012162013C-2352.3518558799183 826.561967748708 -842.0215472046441 -152.47810893949782 -86.43845665249273 -753.2047609231915C669.1446338996593 -1353.931412906885 825.6083807514619 -1485.687356861165 1451.0346937342247 -1456.223917359711C2076.461006716987 -1426.7604778582574 2710.7157725673196 -1308.7658101300722 2915.607845664773 -611.7802513162051C3120.499918762226 85.2053074976618 2883.3552426209517 1318.068160034993 2434.5166446020075 1889.3067649468449 "></path><path d="M2881.6131953604454 -598.1074280958214C3083.736456659284 89.45940695029049 2849.7964383037024 1305.6619506695497 2407.0232267444735 1869.1811149744844C1964.2500151852446 2432.700279279419 1703.797549422381 2201.74267135979 756.3017798761498 2106.7845605678626C-191.19398967008192 2011.8264497759342 -1966.7550725861022 2005.9666323917627 -2140.95646707744 1413.382183173232C-2315.157861568777 820.7977339547006 -825.2374219296553 -145.0120714269076 -79.86491368226234 -737.6207956810917C665.5075945651306 -1330.2295199352761 819.8569664594766 -1460.204978160444 1436.8315725100392 -1431.1396932468476C2053.8061785606014 -1402.0744083332515 2679.4899340616066 -1285.6742631419338 2881.6131953604454 -598.1074280958214C3083.736456659284 89.45940695029049 2849.7964383037024 1305.6619506695497 2407.0232267444735 1869.1811149744844 "></path><path d="M2847.6184840209608 -584.4347879809065C3046.972933521186 93.71332329745064 2816.237572951297 1293.2555581986376 2379.529747851784 1849.0552818966553C1942.8219227522704 2404.8550055946725 1685.9372989861586 2177.0612005232583 751.4209235433 2083.4038857695764C-183.0954518995586 1989.7465710158936 -1934.3337802550855 1983.9670251027383 -2106.148854273939 1399.5001710789816C-2277.963928292792 815.0333170552253 -808.4533576898225 -137.5462170197859 -73.29143174718865 -722.0370135444609C661.8704941954452 -1306.5278100691357 814.1054911323345 -1434.7227825651917 1422.628390250698 -1406.055652239453C2031.1512893690615 -1377.3885219137142 2648.2640345207365 -1262.5828992592637 2847.6184840209608 -584.4347879809065C3046.972933521186 93.71332329745064 2816.237572951297 1293.2555581986376 2379.529747851784 1849.0552818966553 "></path><path d="M2813.623772681478 -570.7619647605229C3010.2094103830877 97.96742275007932 2782.6787075988923 1280.8493488331937 2352.036268959094 1828.9296319242949C1921.3938303192963 2377.0099150153965 1668.077048549936 2152.3799127921952 746.5400672104506 2060.023394076759C-174.9969141290353 1967.6668753613221 -1901.9124879240685 1961.9676009191821 -2071.341241470438 1385.6183420902003C-2240.769995016807 809.2690832612179 -791.6692934499899 -130.08017950719568 -66.71794981211497 -706.4530483023611C658.2333938257602 -1282.8259170975266 808.3540158051924 -1409.2404038644709 1408.4252079913567 -1380.9714281265894C2008.4964001775206 -1352.702452388708 2617.038134979867 -1239.4913522711252 2813.623772681478 -570.7619647605229C3010.2094103830877 97.96742275007932 2782.6787075988923 1280.8493488331937 2352.036268959094 1828.9296319242949 "></path><path d="M2779.6288477189464 -557.0894467159205C2973.4456736219427 102.22121702692675 2749.11962862344 1268.4428342919696 2324.5425764433576 1808.8036767761532C1899.9655242632753 2349.1645192603373 1650.2165844906663 2127.698319885351 741.6589972545539 2036.6425972081597C-166.89858998155887 1945.5868745309685 -1869.4914092160986 1939.9678715598452 -2036.5338422899838 1371.7362079256372C-2203.576275363869 803.5045442914297 -774.8854428332043 -122.61444717038671 -60.144681500088154 -690.8693882360426C654.5960798330289 -1259.1243293016987 802.6023268550039 -1383.7583303395309 1394.2218121089686 -1355.8875091895072C1985.841297362933 -1328.0166880394834 2585.812021815951 -1216.4001104587678 2779.6288477189464 -557.0894467159205C2973.4456736219427 102.22121702692675 2749.11962862344 1268.4428342919696 2324.5425764433576 1808.8036767761532 "></path><path d="M2745.6341363794627 -543.4168066010056C2936.6821504838445 106.47513337408668 2715.5607632710353 1256.0364418210575 2297.049097550668 1788.677843698324C1878.537431830301 2321.319245575591 1632.3563340544442 2103.016849048819 736.7781409217041 2013.261922409873C-158.80005221103556 1923.506995770928 -1837.070116885082 1917.9682642708203 -2001.726229486483 1357.8541958313872C-2166.382342087884 797.7401273919536 -758.1013785933717 -115.14859276326524 -53.57119956501401 -675.2856060994118C650.9589794633434 -1235.4226194355583 796.8508515278622 -1358.2761347442788 1380.0186298496274 -1330.8034681821125C1963.186408171392 -1303.3308016199462 2554.586122275081 -1193.3087465760977 2745.6341363794627 -543.4168066010056C2936.6821504838445 106.47513337408668 2715.5607632710353 1256.0364418210575 2297.049097550668 1788.677843698324 "></path><path d="M2711.639425039979 -529.744227521247C2899.918627345747 110.72898868609036 2682.0018979186298 1243.629988314989 2269.555618657979 1768.5519495853391C1857.109339397326 2293.473910855689 1614.4960836182213 2078.335317177131 731.8972845888547 1989.8811865764305C-150.70151444051226 1901.4270559757306 -1804.648824554065 1895.9685959466397 -1966.918616682982 1343.9721227019804C-2129.188408811899 791.9756494573217 -741.3173143535391 -107.68279939129957 -46.99771762993987 -659.7018849979371C647.3218790936585 -1211.7209706045744 791.0993762007206 -1332.7940001841828 1365.8154475902857 -1305.7194882098738C1940.5315189798512 -1278.644976235565 2523.3602227342108 -1170.2174437285842 2711.639425039979 -529.744227521247C2899.918627345747 110.72898868609036 2682.0018979186298 1243.629988314989 2269.555618657979 1768.5519495853391 "></path><path d="M2677.6449883586984 -516.0714653360196C2863.155378865852 114.98302710356279 2648.4433072244283 1231.2237179143895 2242.0624144234916 1748.426238577823C1835.681521622555 2265.628759241256 1596.6361078402015 2053.6539684109116 727.016702914208 1966.5006338484568C-142.60270201178537 1879.347299286003 -1772.2272575648449 1873.9691107279273 -1932.110729221278 1330.0902326780429C-2091.994200877711 786.2113546281585 -724.5329754555034 -100.2168229138656 -40.42396103666351 -644.1179807909936C643.6850533821766 -1188.0191386681215 785.3481755317816 -1307.311682518618 1351.6125399891475 -1280.6353251321666C1917.8769044465134 -1253.9589677457154 2492.1345978515446 -1147.1259577756018 2677.6449883586984 -516.0714653360196C2863.155378865852 114.98302710356279 2648.4433072244283 1231.2237179143895 2242.0624144234916 1748.426238577823 "></path><path d="M2643.650307536792 -502.3985810804793C2826.391886245332 119.23718759134795 2614.884472389601 1218.8175695841028 2214.5689660483804 1728.3006496406192C1814.2534597071594 2237.783729697135 1578.7758879215571 2028.9727417150052 722.1358770989368 1943.120203190796C-134.50413372368394 1857.2676646665877 -1739.80593471625 1851.9697475795283 -1897.303085900199 1316.2084647244178C-2054.8002370841477 780.4471818693082 -707.7488806980925 -92.7507243661189 -33.85044858401125 -628.5339545137375C640.0479835300698 -1164.3171846613561 779.5967307222181 -1281.829242782741 1337.4093882473844 -1255.5510399841469C1895.2220457725507 -1229.272837185553 2460.9087288282526 -1124.0343497523068 2643.650307536792 -502.3985810804793C2826.391886245332 119.23718759134795 2614.884472389601 1218.8175695841028 2214.5689660483804 1728.3006496406192 "></path><path d="M2609.655352056684 -488.7258799304084C2789.628118966609 123.49116497366413 2581.3253628965704 1206.411238148347 2187.075243015065 1708.1748775979463C1792.8251231335603 2209.9385170475457 1560.9153933447096 2004.2913319136296 717.254776625462 1919.739589427666C-126.40584009378563 1835.187846941703 -1707.3848865258583 1829.9702013256597 -1862.495717237323 1302.326513665324C-2017.606547948788 774.6828260049883 -690.965060598885 -85.28480892384096 -27.27721078956256 -612.9501113419503C636.4106390197599 -1140.6154137600595 773.845011254451 -1256.3469861523324 1323.2059618474182 -1230.466937941596C1872.5669124403848 -1204.5868897308596 2429.6825851467584 -1100.942924834481 2609.655352056684 -488.7258799304084C2789.628118966609 123.49116497366413 2581.3253628965704 1206.411238148347 2187.075243015065 1708.1748775979463 "></path><path d="M2575.6606407171994 -475.05323981549327C2752.8645958285106 127.74508132082406 2547.766497544165 1194.0048456774343 2159.5817641223757 1688.0490445201171C1771.3970307005861 2182.0932433628 1543.0551429084867 1979.6098610770978 712.3739202926122 1896.3589146293798C-118.30730232326187 1813.1079681816627 -1674.9635941948413 1807.9705940366352 -1827.6881044338222 1288.4445015710735C-1980.412614672803 768.9184091055126 -674.1809963590524 -77.81895451671949 -20.703728854488872 -597.3663292053194C632.7735386500749 -1116.9137038939193 768.0935359273094 -1230.8647905570801 1309.002779588077 -1205.3828969342012C1849.9120232488444 -1179.9010033113223 2398.456685605889 -1077.8515609518108 2575.6606407171994 -475.05323981549327C2752.8645958285106 127.74508132082406 2547.766497544165 1194.0048456774343 2159.5817641223757 1688.0490445201171 "></path><path d="M2541.665959895294 -461.3805997005784C2716.1011032079914 131.99899766798399 2514.2076627093384 1181.5984532065227 2132.0883157472636 1667.923211442288C1749.96896878519 2154.247969678054 1525.1949229898419 1954.928390240566 707.493094477341 1872.9782398310936C-110.20873403516066 1791.0280894216216 -1642.5422713462465 1785.9709867476104 -1792.8804611127432 1274.5624894768239C-1943.21865087924 763.1539922060365 -657.3969016016417 -70.35310010959802 -14.13021640183706 -581.7825470686884C629.1364687979676 -1093.211994027779 762.3420911177459 -1205.3825949618279 1294.7996278463138 -1180.2988559268065C1827.2571645748822 -1155.215116891785 2367.230816582597 -1054.760197069141 2541.665959895294 -461.3805997005784C2716.1011032079914 131.99899766798399 2514.2076627093384 1181.5984532065227 2132.0883157472636 1667.923211442288 "></path><path d="M2507.671248555811 -447.70789855050725C2679.337580069893 136.25297505030017 2480.648797356933 1169.1921217707668 2104.594836854574 1647.797439399615C1728.5408763522155 2126.402757028464 1507.3346725536194 1930.2469804391899 702.6122381444911 1849.5976260679636C-102.11019626463735 1768.9482716967373 -1610.1209790152298 1763.9714404937422 -1758.0728483092423 1260.6805384177296C-1906.0247176032549 757.389636341717 -640.6128373618092 -62.88718466732007 -7.556734466762919 -566.1987038969012C625.4993684282831 -1069.5102231264823 756.5906157906038 -1179.9003383314193 1280.5964455869725 -1155.2147538842555C1804.6022753833408 -1130.5291694370915 2336.004917041728 -1031.668772151315 2507.671248555811 -447.70789855050725C2679.337580069893 136.25297505030017 2480.648797356933 1169.1921217707668 2104.594836854574 1647.797439399615 "></path><path d="M2473.6765372163263 -434.0350753301236C2642.574056931794 140.50707450292907 2447.0899320045273 1156.7859124053234 2077.101357961885 1627.6717894272551C1707.1127839192409 2098.557666449187 1489.474422117397 1905.5656927081272 697.7313818116413 1826.217134375146C-94.01165849411382 1746.8685760421658 -1577.6996866842128 1741.972016310186 -1723.2652355057414 1246.7987094289483C-1868.83078432727 751.6254025477101 -623.8287731219764 -55.42114715472985 -0.9832525316892315 -550.6147386548015C621.8622680585977 -1045.8083301548731 750.8391404634622 -1154.4179596306985 1266.3932633276313 -1130.130529771392C1781.9473861918 -1105.8430999120856 2304.7790175008586 -1008.5772251631762 2473.6765372163263 -434.0350753301236C2642.574056931794 140.50707450292907 2447.0899320045273 1156.7859124053234 2077.101357961885 1627.6717894272551 "></path><path d="M2439.6818563944207 -420.36243521520873C2605.810564311275 144.760990850089 2413.531097169701 1144.3795199344113 2049.607909586773 1607.5459563494264C1685.6847220038449 2070.7123927644407 1471.614202198752 1880.8842218715954 692.8505559963701 1802.8364595768599C-85.91309020601238 1724.7886972821248 -1545.278363835618 1719.9724090211616 -1688.4575921846624 1232.9166973346978C-1831.636820533707 745.8609856482344 -607.0446783645657 -47.955292747608155 5.590259920962353 -535.0309565181705C618.2251982064909 -1022.1066202887329 745.0876956538987 -1128.9357640354463 1252.1901115858677 -1105.0464887639973C1759.2925275178377 -1081.1572134925482 2273.5531484775674 -985.4858612805062 2439.6818563944207 -420.36243521520873C2605.810564311275 144.760990850089 2413.531097169701 1144.3795199344113 2049.607909586773 1607.5459563494264 "></path><path d="M2405.687175572515 -406.68979510029385C2569.047071690755 149.01490719724893 2379.9722623348734 1131.9731274634992 2022.1144612116614 1587.4201232715973C1664.2566600884488 2042.867119079695 1453.7539822801077 1856.202751035063 687.9697301810984 1779.4557847785736C-77.81452191791095 1702.7088185220841 -1512.857040987023 1697.9728017321368 -1653.6499488635834 1219.0346852404477C-1794.442856740144 740.0965687487587 -590.260583607155 -40.489438340486686 12.163772373614393 -519.4471743815395C614.588128354384 -998.4049104225926 739.3362508443352 -1103.453568440194 1237.9869598441046 -1079.9624477566026C1736.6376688438745 -1056.471327073011 2242.3272794542754 -962.3944973978364 2405.687175572515 -406.68979510029385C2569.047071690755 149.01490719724893 2379.9722623348734 1131.9731274634992 2022.1144612116614 1587.4201232715973 "></path><path d="M2371.692586303344 -393.0170939502225C2532.283670622969 153.26888457956534 2346.4135190527813 1119.5667960277437 1994.6211043892845 1567.2943512289248C1642.8286897257872 2015.0219064301054 1435.8938539141973 1831.521341233688 683.0889959185611 1756.075171015444C-69.71586207707492 1680.6290007971998 -1480.4356265856936 1675.973255478269 -1618.84221398977 1205.152734181354C-1757.2488013938464 734.3322128844393 -573.47639729701 -33.02352289820874 18.737376379000807 -503.86333120975223C610.9511500550116 -974.703139521296 733.5848975875056 -1077.9713118097854 1223.7838996550759 -1054.8783457140514C1713.9829017226466 -1031.7853796183176 2211.1015019837178 -939.3030724800102 2371.692586303344 -393.0170939502225C2532.283670622969 153.26888457956534 2346.4135190527813 1119.5667960277437 1994.6211043892845 1567.2943512289248 "></path><path d="M2337.6979054814383 -379.3443317649951C2495.520178002449 157.52292299703777 2312.854684217955 1107.1605256271441 1967.1276560141723 1547.1686402214082C1621.4006278103911 1987.1767548156722 1418.033633995553 1806.839992467469 678.2081701032894 1732.6946182874703C-61.617293788973484 1658.549244107472 -1448.0143037370988 1653.9737702595567 -1584.034570668691 1191.2708441574164C-1720.0548376002835 728.5679180552761 -556.6923025395993 -25.557546420774543 25.310888831652846 -488.2794270028089C607.3140802029047 -951.0013075848431 727.8334527779416 -1052.4889941442207 1209.5807479133132 -1029.7941826363442C1691.3280430486839 -1007.0993711284677 2179.8756329604275 -916.2115865270279 2337.6979054814383 -379.3443317649951C2495.520178002449 157.52292299703777 2312.854684217955 1107.1605256271441 1967.1276560141723 1547.1686402214082 "></path><path d="M2303.7031941419546 -365.67163061492397C2458.7566548643517 161.77690037935395 2279.2958188655484 1094.7541941913883 1939.634177121483 1527.0428681787353C1599.972535377417 1959.3315421660827 1400.17338355933 1782.158582666093 673.32731377044 1709.3140045243404C-53.518756018450176 1636.4694263825872 -1415.593011406082 1631.9742240056885 -1549.2269578651901 1177.3888930983221C-1682.8609043242984 722.8035621909562 -539.9082382997667 -18.091630978496596 31.884370766726533 -472.6955838310216C603.6769798332198 -927.2995366835464 722.0819774508 -1027.0067375138124 1195.3775656539715 -1004.7100805937932C1668.6731538571435 -982.4134236737742 2148.649733419557 -893.1201616092017 2303.7031941419546 -365.67163061492397C2458.7566548643517 161.77690037935395 2279.2958188655484 1094.7541941913883 1939.634177121483 1527.0428681787353 "></path><path d="M2269.708482802471 -351.9989294648527C2421.9931317262526 166.03087776167013 2245.736953513144 1082.3478627556324 1912.1406982287936 1506.9170961360628C1578.5444429444428 1931.4863295164928 1382.3131331231075 1757.4771728647174 668.4464574375907 1685.9333907612104C-45.42021824792664 1614.3896086577029 -1383.171719075065 1609.9746777518203 -1514.4193450616892 1163.5069420392283C-1645.6669710483134 717.0392063266368 -523.1241740599339 -10.625715536219104 38.45785270180045 -457.11174065923444C600.0398794635348 -903.5977657822499 716.3305021236583 -1001.5244808834038 1181.1743833946302 -979.6259785512423C1646.0182646656021 -957.7274762190807 2117.4238338786877 -870.0287366913756 2269.708482802471 -351.9989294648527C2421.9931317262526 166.03087776167013 2245.736953513144 1082.3478627556324 1912.1406982287936 1506.9170961360628 "></path><path d="M2235.7138019805648 -338.3261672796252C2385.2296391057334 170.28491617914256 2212.1781186783164 1069.9415923550328 1884.6472498536818 1486.7913851285462C1557.1163810290464 1903.6411779020596 1364.4529132044631 1732.7958240984985 663.565631622319 1662.5528380332366C-37.32164995982521 1592.3098519679752 -1350.7503962264702 1587.9751925331084 -1479.6117017406102 1149.6250520152907C-1608.4730072547504 711.2749114974733 -506.34007930252324 -3.1597390587849077 45.03136515445226 -441.5278364522909C596.402809611428 -879.8959338457971 710.5790573140948 -976.0421632178391 1166.9712316528671 -954.541815473535C1623.3634059916394 -933.0414677292309 2086.1979648553965 -846.9372507383931 2235.7138019805648 -338.3261672796252C2385.2296391057334 170.28491617914256 2212.1781186783164 1069.9415923550328 1884.6472498536818 1486.7913851285462 "></path><path d="M2201.7190906410806 -324.65349664713233C2348.4661159676352 174.5388630438806 2178.6192533259114 1057.5352304016988 1857.1537709609925 1466.6655825682951C1535.6882885960722 1875.7959347348915 1346.5926627682402 1708.1143837795444 658.6847752894691 1639.1721937525285C-29.2231121893019 1570.2300037255122 -1318.3291038954535 1565.9756157616616 -1444.8040889371093 1135.7430704386184C-1571.2790739787654 705.5105251155755 -489.5560150626907 4.306145865914914 51.604847089526174 -425.94402379808184C592.7657092417426 -856.1941934620786 704.8275819869527 -950.5599371050087 1152.7680493935259 -929.4577439485622C1600.708516800099 -908.3555507921155 2054.9720653145264 -823.8458563381452 2201.7190906410806 -324.65349664713233C2348.4661159676352 174.5388630438806 2178.6192533259114 1057.5352304016988 1857.1537709609925 1466.6655825682951 "></path><path d="M2167.724287748863 -310.9808260146392C2311.702501276803 178.79280990861866 2145.0602964207724 1045.1288684483648 1829.6602005155678 1446.539780008044C1514.2601046103637 1847.9506915677234 1328.7323207792833 1683.4329434605906 653.8038274038854 1615.7915494718204C-21.12466597151274 1548.1501554830497 -1285.907903117171 1543.9760389902153 -1409.9965676863428 1121.8610888619469C-1534.0852322555147 699.746138733678 -472.77204237559226 11.772030790614508 58.178237471865486 -410.3602111438728C589.1285173193237 -832.4924530783601 699.0760151070767 -925.0777109921784 1138.5647755814502 -904.3736724235893C1578.0535360558238 -883.6696338550001 2023.7460742209223 -800.7544619378971 2167.724287748863 -310.9808260146392C2311.702501276803 178.79280990861866 2145.0602964207724 1045.1288684483648 1829.6602005155678 1446.539780008044 "></path><path d="M2133.7296984796913 -297.3080027942556C2274.9391002090174 183.04690936124734 2111.5015531386794 1032.7226590829214 1802.166843693191 1426.4141300356841C1492.832134247702 1820.1056009884464 1310.8721924133729 1658.751655729528 648.9230931413481 1592.411057779003C-13.026006130676933 1526.0704598284779 -1253.4864887158417 1521.9766148066592 -1375.1888328125294 1107.9792598731651C-1496.8911769092174 693.9819049396708 -455.98785606544743 19.238068303204955 64.75184147725167 -394.7762459017731C585.4915390199512 -808.7905601067511 693.3246618502471 -899.5953322914575 1124.361715392421 -879.2894483107258C1555.3987689345954 -858.9835643299941 1992.5202967503656 -777.6629149497585 2133.7296984796913 -297.3080027942556C2274.9391002090174 183.04690936124734 2111.5015531386794 1032.7226590829214 1802.166843693191 1426.4141300356841 "></path><path d="M2099.7350176577856 -283.6353931969186C2238.175607588497 187.30079519082938 2077.9427183038524 1020.3162360944316 1774.6733953180792 1406.2882664402769C1471.404072332306 1792.260296786123 1293.0119724947285 1634.070154375418 644.0422673260764 1569.0303524631386C-4.9274378425755 1503.9905505508596 -1221.0651658672468 1499.976977000057 -1340.3811894914506 1094.0972172613374C-1459.6972131156542 688.2174575226172 -439.2037613080365 26.7038921927483 71.32535392990371 -379.1924942827202C581.854469167844 -785.0888807581889 687.5732170406836 -874.1131672137833 1110.1585636506584 -854.2054378209091C1532.7439102606327 -834.2977084280351 1961.2944277270735 -754.5715815846667 2099.7350176577856 -283.6353931969186C2238.175607588497 187.30079519082938 2077.9427183038524 1020.3162360944316 1774.6733953180792 1406.2882664402769 "></path><path d="M2065.740184247989 -269.96266152926944C2201.411962380087 191.55480309072368 2044.3837308811349 1007.9099351762538 1747.1797943550769 1386.1625249151825C1449.9758578290193 1764.4151146541112 1275.151599988193 1609.3887750916206 639.1612889229145 1545.6497692175867C3.1709778576355347 1481.9107633435528 -1188.6439956065424 1477.9774612637666 -1305.5736987582623 1080.2152967198213C-1422.5034019099817 682.4531321758757 -422.41981913851623 34.16983815260437 77.89871379466513 -363.6086205933549C578.2172467278465 -761.3870793393141 681.8216196432295 -848.6308800657966 1095.9552593210046 -829.12130526078C1510.0888989987793 -809.6117304557633 1930.0684061158918 -731.4801261492624 2065.740184247989 -269.96266152926944C2201.411962380087 191.55480309072368 2044.3837308811349 1007.9099351762538 1747.1797943550769 1386.1625249151825 "></path><path d="M2031.7454729085057 -256.2899908967763C2164.6484392419884 195.80874995546174 2010.8248655287293 995.5035732229198 1719.686315462387 1366.036722354932C1428.5477653960447 1736.5698714869436 1257.2913495519706 1584.7073347726673 634.2804325900643 1522.2691249368786C11.269515628158842 1459.8309151010903 -1156.2227032755256 1455.9778844923203 -1270.7660859547614 1066.3333151431489C-1385.3094686339969 676.6887457939781 -405.6357548986839 41.63572307730419 84.47219572973881 -348.02480793914583C574.580146358162 -737.6853389555956 676.0701443160879 -823.1486539529664 1081.7520770616634 -804.0372337358071C1487.434009807239 -784.925813518648 1898.8425065750225 -708.3887317490144 2031.7454729085057 -256.2899908967763C2164.6484392419884 195.80874995546174 2010.8248655287293 995.5035732229198 1719.686315462387 1366.036722354932 "></path><path d="M1997.7507920865992 -242.61725922912694C2127.8849466214683 200.06275785535627 1977.2660306939024 983.0972723047421 1692.1928670872753 1345.9109808298372C1407.1197034806487 1708.7246893549323 1239.4311296333262 1560.0259554888694 629.399606774793 1498.8885416913267C19.368083916260275 1437.7511278937845 -1123.8013804269308 1433.9783687560298 -1235.9584426336824 1052.4513946016332C-1348.1155048404337 670.9244204472366 -388.851660141273 49.101669037160036 91.04570818239063 -332.4409342497804C570.9430765060542 -713.983537536721 670.3186995065239 -797.6663668049798 1067.5489253198998 -778.9531011756781C1464.7791511332762 -760.2398355463763 1867.616637551731 -685.2972763136102 1997.7507920865992 -242.61725922912694C2127.8849466214683 200.06275785535627 1977.2660306939024 983.0972723047421 1692.1928670872753 1345.9109808298372 "></path><path d="M1963.7562028174284 -228.94461911421206C2091.121545553683 204.31667420251597 1943.7072874118094 970.69087983383 1664.6995102648984 1325.785147752008C1385.691733117987 1680.879415670186 1221.5710012674158 1535.3444846523375 624.5188725122562 1475.5078668930405C27.46674375709631 1415.6712491337435 -1091.3799660256013 1411.9787614670054 -1201.150707759869 1038.5693825073831C-1310.9214494941361 665.1600035477609 -372.06747383112815 56.56752344428173 97.61931218777704 -316.8571521131495C567.3060982066822 -690.2818276705806 664.5673462496948 -772.1841712097275 1053.345865130871 -753.8690601682833C1442.1243840120478 -735.5539491268391 1836.3908600811737 -662.2059124309402 1963.7562028174284 -228.94461911421206C2091.121545553683 204.31667420251597 1943.7072874118094 970.69087983383 1664.6995102648984 1325.785147752008 "></path><path d="M1929.7615219955228 -215.2718874465628C2054.358052933163 208.5706821024105 1910.148452576983 958.2845789156522 1637.2060618897867 1305.6594062269132C1364.263671202591 1653.0342335381742 1203.7107813487714 1510.6631053685405 619.6380466969849 1452.1272836474886C35.56531204519774 1393.5914619264372 -1058.9586431770065 1389.9792457307149 -1166.34306443879 1024.6874619658674C-1273.7274857005732 659.3956782010193 -355.28337907371724 64.03346940413758 104.19282464042908 -301.2732784237842C563.6690283545754 -666.5800262517059 658.8159014401308 -746.7018840617409 1039.142713389108 -728.7849276081542C1419.469525338085 -710.8679711545674 1805.1649910578822 -639.114456995536 1929.7615219955228 -215.2718874465628C2054.358052933163 208.5706821024105 1910.148452576983 958.2845789156522 1637.2060618897867 1305.6594062269132 "></path><path d="M1895.7668106560386 -201.59915577891343C2017.5945297950648 212.82469000230458 1876.5895872245774 945.8782779974745 1609.712582997097 1285.5336647018185C1342.8355787696169 1625.189051406163 1185.8505309125485 1485.9817260847426 614.7571903641347 1428.7467004019368C43.66384981572128 1371.511674719131 -1026.5373508459897 1367.9797299944248 -1131.535451635289 1010.8055414243513C-1236.5335524245882 653.6313528542778 -338.4993148338849 71.49941536399365 110.76630657550277 -285.68940473441876C560.0319279848902 -642.8782248328312 653.0644261129892 -721.2195969137542 1024.9395311297667 -703.700795048025C1396.8146361465447 -686.1819931822959 1773.9390915170125 -616.0230015601317 1895.7668106560386 -201.59915577891343C2017.5945297950648 212.82469000230458 1876.5895872245774 945.8782779974745 1609.712582997097 1285.5336647018185 "></path><path d="M1861.772129834133 -187.9264546288423C1980.8310371745447 217.07866738462099 1843.0307523897504 933.4719465617186 1582.2191346219852 1265.407892659146C1321.4075168542208 1597.343838756573 1167.9903109939041 1461.300316283367 609.8763645488634 1405.3660866388068C51.76241810382271 1349.4318569942466 -994.1160279973947 1345.9801837405566 -1096.72780831421 996.9235903652575C-1199.3395886310252 647.8669969899584 -321.715220076474 78.96533080627137 117.3398190281548 -270.1055615626317C556.3948581327834 -619.1764539315345 647.3129813034257 -695.7373402833458 1010.7363793880036 -678.6166930054741C1374.1597774725815 -661.4960457276022 1742.7132224937213 -592.9315766423056 1861.772129834133 -187.9264546288423C1980.8310371745447 217.07866738462099 1843.0307523897504 933.4719465617186 1582.2191346219852 1265.407892659146 "></path><path d="M1827.7774184946493 -174.25375347877105C1944.067514036447 221.3326447669374 1809.4718870373454 921.0656151259632 1554.7256557292958 1245.2821206164735C1299.9794244212462 1569.498626106984 1150.1300605576812 1436.6189064819919 604.9955082160136 1381.9854728756773C59.86095587434602 1327.3520392693626 -961.6947356663779 1323.9806374866885 -1061.9201955107092 983.0416393061637C-1162.1456553550402 642.1026411256389 -304.9311558366412 86.43124624854931 123.9133009632285 -254.5217183908444C552.7577577630982 -595.474683030238 641.5615059762836 -670.2550836529374 996.5331971286623 -653.532590962923C1351.5048882810406 -636.8100982729088 1711.4873229528516 -569.8401517244794 1827.7774184946493 -174.25375347877105C1944.067514036447 221.3326447669374 1809.4718870373454 921.0656151259632 1554.7256557292958 1245.2821206164735 "></path><path d="M1793.7827376727437 -160.58102181112167C1907.3040214159273 225.5866526668317 1775.9130522025184 908.6593142077854 1527.2322073541845 1225.1563790913788C1278.5513625058502 1541.653443974972 1132.2698406390368 1411.9375271981944 600.1146824007421 1358.6048896301254C67.95952416244768 1305.2722520620564 -929.273412817783 1301.9811217503984 -1027.1125521896302 969.159718764648C-1124.9516915614772 636.3383157788978 -288.14706107923075 93.89719220840539 130.48681341588053 -238.93784470147898C549.1206879109914 -571.7728816113633 635.8100611667201 -644.7727965049507 982.3300453868992 -628.4484584027939C1328.8500296070783 -612.1241203006372 1680.26145392956 -546.748696289075 1793.7827376727437 -160.58102181112167C1907.3040214159273 225.5866526668317 1775.9130522025184 908.6593142077854 1527.2322073541845 1225.1563790913788 "></path><path d="M1759.7880263332595 -146.90835117862866C1870.540498277829 229.84059953156975 1742.354186850113 896.2529522544514 1499.7387284614947 1205.0305765311277C1257.123270072876 1513.8082008078045 1114.4095902028143 1387.2560868792407 595.2338260678923 1335.2242453494173C76.05806193297099 1283.192403819594 -896.8521204867661 1279.9815449789517 -992.3049393861291 955.2777371879758C-1087.7577582854922 630.573929397 -271.36299683939797 101.36307713310498 137.06029535095422 -223.3540320472698C545.4835875413064 -548.0711412276448 630.0585858395782 -619.2905703921203 968.126863127558 -603.3643868778211C1306.1951404155375 -587.4382033635218 1649.0355543886903 -523.6573018888271 1759.7880263332595 -146.90835117862866C1870.540498277829 229.84059953156975 1742.354186850113 896.2529522544514 1499.7387284614947 1205.0305765311277 "></path><path d="M1725.7933149937758 -133.23565002855753C1833.776975139731 234.09457691388593 1708.7953214977078 883.8466208186953 1472.2452495688049 1184.9048044884548C1235.6951776399019 1485.962988158215 1096.5493397665914 1362.574677077865 590.3529697350427 1311.8436315862873C84.1565997034943 1261.1125860947095 -864.4308281557494 1257.981998725083 -957.4973265826283 941.3957861288818C-1050.5638250095071 624.8095735326806 -254.5789325995654 108.82899257538293 143.63377728602813 -207.77018887548275C541.8464871716214 -524.3693703263482 624.3071105124366 -593.8083137617119 953.9236808682163 -578.2802848352701C1283.5402512239966 -562.7522559088283 1617.8096548478206 -500.56587697100093 1725.7933149937758 -133.23565002855753C1833.776975139731 234.09457691388593 1708.7953214977078 883.8466208186953 1472.2452495688049 1184.9048044884548 "></path><path d="M1691.7985121015577 -119.56288784333015C1797.0133604488983 238.34861533135836 1675.2363645925684 871.4403504180959 1444.751679123381 1164.7790934809386C1214.2669936541934 1458.1178365437813 1078.6889977776345 1337.8933283116457 585.4720218494588 1288.4630788583136C92.25504592128345 1239.0328294049814 -832.0096273774669 1235.982513506371 -922.6898053318617 927.513896104944C-1013.3699832862566 619.0452787035172 -237.79495991246722 116.2949690528169 150.20716766836745 -192.1862846685392C538.2092952492021 -500.6675383898954 618.5555436325601 -568.3259960961473 939.7204070561411 -553.1961217575629C1260.8852704797214 -538.0662474189785 1586.5836637542166 -477.47439101801854 1691.7985121015577 -119.56288784333015C1797.0133604488983 238.34861533135836 1675.2363645925684 871.4403504180959 1444.751679123381 1164.7790934809386 "></path><path d="M1657.803831279652 -105.89021721083691C1760.2498678283787 242.60256219609664 1641.6775297577415 859.0339884647622 1417.2582307482694 1144.653290920688C1192.8389317387973 1430.2725933766137 1060.8287778589893 1313.211887992692 580.5911960341873 1265.0824345776055C100.35361420938489 1216.9529811625189 -799.588304528872 1213.9829367349248 -887.8821620107827 913.6319145282721C-976.1760194926935 613.2808923216196 -221.01086515505642 123.76085397751672 156.78068012101926 -176.60247201433015C534.5722253970953 -476.9657980061769 612.8040988229966 -542.8437699833169 925.517255314378 -528.11205023259C1238.230411805759 -513.3803304818631 1555.3577947309254 -454.3829966177705 1657.803831279652 -105.89021721083691C1760.2498678283787 242.60256219609664 1641.6775297577415 859.0339884647622 1417.2582307482694 1144.653290920688 "></path><path d="M1623.8092420104804 -92.21748554318765C1723.486466760593 246.85657009599095 1608.1187864756484 846.6276875465844 1389.764873925892 1124.5275493955933C1171.4109613761352 1402.427411244602 1042.9686494930793 1288.5305087088946 575.71046177165 1241.7018513320536C108.4522740502207 1194.8731939552126 -767.1668901275427 1191.9834209986348 -853.0744271369693 899.7499939867564C-938.9819641463961 607.5165669748783 -204.22667884491125 131.22679993737268 163.35428412640567 -161.01859832496484C530.9352470977226 -453.26399658730224 607.0527455661672 -517.3614828353302 911.3141951253492 -503.02791767246083C1215.5756446845307 -488.69435250959145 1524.1320172603682 -431.29154118236625 1623.8092420104804 -92.21748554318765C1723.486466760593 246.85657009599095 1608.1187864756484 846.6276875465844 1389.764873925892 1124.5275493955933 "></path><path d="M1589.8144086006841 -78.54466232280402C1686.7228215521823 251.11066954861963 1574.5597990529309 834.221478181141 1362.2712729628897 1104.4018994232329C1149.9827468728486 1374.582320665325 1025.1082769865443 1263.8492209778315 570.8294833684879 1218.321359639236C116.5506897504315 1172.7934983006405 -734.7457198668384 1169.9839968150789 -818.266936403781 885.8681649979749C-901.7881529407236 601.7523331808711 -187.4427366753912 138.6928374499629 169.92764399116686 -145.43463308286505C527.2980246577254 -429.5621036156931 601.3011481687129 -491.87910413460924 897.110890795695 -477.94369355959736C1192.9206334226774 -464.00828298458543 1492.9059956491865 -408.1999941942276 1589.8144086006841 -78.54466232280402C1686.7228215521823 251.11066954861963 1574.5597990529309 834.221478181141 1362.2712729628897 1104.4018994232329 "></path><path d="M1555.8197277787785 -64.87205272546726C1649.9593289316626 255.36455537820143 1541.000964218104 821.8150551926508 1334.7778245877785 1084.2760358278258C1128.554684957452 1346.737016463001 1007.2480570678999 1239.1677196237215 565.9486575532164 1194.9406543233715C124.64925803853293 1150.7135890230215 -702.3243970182434 1147.984359008476 -783.459293082702 871.9861223861465C-864.5941891471605 595.9878857638171 -170.6586419179805 146.15866133950647 176.50115644381913 -129.85088146381236C523.6609548056183 -405.8604242671309 595.5497033591494 -466.39693905693514 882.9077390539319 -452.8596830697807C1170.2657747487146 -439.3224270826263 1461.6801266258944 -385.10866082913583 1555.8197277787785 -64.87205272546726C1649.9593289316626 255.36455537820143 1541.000964218104 821.8150551926508 1334.7778245877785 1084.2760358278258 "></path><path d="M1521.8250164392944 -51.19926002266152C1613.1958057935644 259.618624313252 1507.4420988656989 809.4088153096295 1307.2843456950886 1064.1503553378877C1107.126592524478 1318.891895366146 989.387806631677 1214.4864013750807 561.0678012203668 1171.5601321129761C132.74779580905647 1128.633862850872 -669.9031046872266 1125.9849043073423 -748.6516802792011 858.104262879787C-827.4002558711755 590.2236214522322 -153.87457767814783 153.62466833451867 183.07463837889281 -114.26694673929069C520.0238544359333 -382.15856181309994 589.7982280320075 -440.9145908737923 868.7045567945906 -427.7754894744954C1147.6108855571738 -414.6363880751984 1430.4542270850247 -362.0171443585753 1521.8250164392944 -51.19926002266152C1613.1958057935644 259.618624313252 1507.4420988656989 809.4088153096295 1307.2843456950886 1064.1503553378877 "></path><path d="M1487.8304271701231 -37.526558872590385C1576.4324047257787 263.8726016955684 1473.8833555836059 797.0024838738734 1279.7909888727113 1044.0245832952148C1085.6986221618163 1291.0466827165565 971.5276782657668 1189.8049915737051 556.1870669578295 1148.1795183498461C140.8464556498925 1106.5540451259876 -637.4816902858972 1103.9853580534739 -713.8439454053877 844.222311820693C-790.2062005248781 584.4592655879126 -137.09039136800277 161.0905837767965 189.648242384279 -98.6831035675034C516.3868761365609 -358.45679091180335 584.0468747751781 -415.4323342433838 854.5014966055619 -402.69138743194435C1124.9561184359454 -389.95044062050493 1399.228449614468 -338.92571944074916 1487.8304271701231 -37.526558872590385C1576.4324047257787 263.8726016955684 1473.8833555836059 797.0024838738734 1279.7909888727113 1044.0245832952148 "></path><path d="M1453.835746348218 -23.853827204941126C1539.668912105259 268.1266095954626 1440.324520748779 784.5961829556959 1252.2975404975996 1023.89884177012C1064.2705602464202 1263.2015005845444 953.6674583471222 1165.1236122899074 551.3062411425581 1124.7989351042943C148.94502393799394 1084.4742579186811 -605.0603674373024 1081.9858423171836 -679.0363020843087 830.3403912791773C-753.0122367313149 578.694940241171 -120.30629661059209 168.55652973665246 196.22175483693104 -83.09922987813809C512.749806284454 -334.75498949292864 578.2954299656144 -389.9500470953972 840.2983448637988 -377.60725487181526C1102.3012597619827 -365.2644626482333 1368.0025805911764 -315.8342640053449 1453.835746348218 -23.853827204941126C1539.668912105259 268.1266095954626 1440.324520748779 784.5961829556959 1252.2975404975996 1023.89884177012 "></path><path d="M1419.841065526312 -10.181187090026242C1502.905419484739 272.3805259426226 1406.765685913952 772.1897904847838 1224.8040921224883 1003.7730086922913C1042.842498331024 1235.3562268997985 935.8072384284776 1140.4421414533758 546.4254153272866 1101.418260306008C157.04359222609537 1062.3943791586405 -572.6390445887074 1059.986235028159 -644.2286587632296 816.458379184927C-715.8182729377519 572.9305233416953 -103.52220185318129 176.02238414377405 202.79526728958263 -67.51544774150716C509.112736432347 -311.0532796267883 572.5439851560509 -364.467851500145 826.0951931220354 -352.5232138644205C1079.6464010880204 -340.578576228696 1336.7767115678853 -292.742900122675 1419.841065526312 -10.181187090026242C1502.905419484739 272.3805259426226 1406.765685913952 772.1897904847838 1224.8040921224883 1003.7730086922913 "></path><path d="M1385.8463541868282 3.491453024888756C1466.1418963466408 276.63444228978267 1373.206820561547 759.7833980138719 1197.3106132297985 983.6471756144624C1021.4144058980498 1207.5109532150527 917.9469879922549 1115.760670616844 541.5445589944368 1078.037585507722C165.14212999661868 1040.3145003985999 -540.2177522576906 1037.9866277391345 -609.4210459597289 802.576367090677C-678.624339661767 567.1661064422196 -86.73813761334873 183.48823855089563 209.36874922465677 -51.931665604876116C505.47563606266203 -287.351569760648 566.792509828909 -338.9856559048927 811.8920108626942 -327.43917285702577C1056.9915118964796 -315.89268980915875 1305.5508120270151 -269.6515362400051 1385.8463541868282 3.491453024888756C1466.1418963466408 276.63444228978267 1373.206820561547 759.7833980138719 1197.3106132297985 983.6471756144624 "></path><path d="M1351.8516733649226 17.164184692538015C1429.3784037261212 280.888450189677 1339.6479857267195 747.3770970956941 1169.8171648546868 963.5214340893676C999.9863439826538 1179.6657710830414 900.0867680736103 1091.0792913330465 536.6637331791653 1054.6570022621702C173.2406982847201 1018.2347131912936 -507.7964294090957 1015.9871120028442 -574.6134026386499 788.6944465491611C-641.4303758682039 561.4017810954781 -69.95404285593804 190.9541845107517 215.94226167730858 -36.34779191551081C501.8385662105552 -263.64976834177327 561.0410650193453 -313.5033687569061 797.688859120931 -302.3550402968966C1034.336653222517 -291.2067118368871 1274.324943003724 -246.56008080460083 1351.8516733649226 17.164184692538015C1429.3784037261212 280.888450189677 1339.6479857267195 747.3770970956941 1169.8171648546868 963.5214340893676 "></path><path d="M1317.8569620254384 30.836916360187388C1392.614880588023 285.1424580895713 1306.0891203743145 734.9707961775164 1142.3236859619972 943.3956925642731C978.5582515496794 1151.8205889510298 882.2265176373878 1066.3979120492493 531.7828768463157 1031.2764190166183C181.33923605524365 996.1549259839876 -475.37513707807886 993.9875962665542 -539.805789835149 774.8125260076454C-604.236442592219 555.6374557487366 -53.16997861610537 198.42013047060755 222.51574361238227 -20.763918226145506C498.20146584087024 -239.94796692289856 555.2895896922037 -288.02108160891953 783.4856768615898 -277.2709077367675C1011.681764030976 -266.52073386461547 1243.0990434628548 -223.46862536919656 1317.8569620254384 30.836916360187388C1392.614880588023 285.1424580895713 1306.0891203743145 734.9707961775164 1142.3236859619972 943.3956925642731 "></path><path d="M1283.8621286156422 44.5095869926804C1355.8512353796123 289.39640495430933 1272.530132951597 722.5644342241824 1114.8300849989948 923.269890004022C957.1300370463928 1123.9753457838617 864.3661451308526 1041.7164717302953 526.9018984431536 1007.8957747359102C189.43765175545468 974.0750777415249 -442.9539668173746 971.9880194951077 -504.9982991019605 760.9305444309734C-567.0426313865464 549.873069366839 -36.386036446585194 205.88601539530725 229.08910347714368 -5.180105571936338C494.5642434008728 -216.2462265391801 549.5379922947493 -262.5388554960892 769.2823725319361 -252.18683621179463C989.0267527691228 -241.83481692750007 1211.873021851672 -200.37723096894854 1283.8621286156422 44.5095869926804C1355.8512353796123 289.39640495430933 1272.530132951597 722.5644342241824 1114.8300849989948 923.269890004022 "></path><path d="M1249.867539346471 58.18231866032977C1319.0878343118266 293.65041285420375 1238.9713896695043 710.1581333060049 1087.3367281766177 903.1441484789275C935.7020666837311 1096.1301636518506 846.5060167649424 1017.0350924464981 522.0211641806163 984.5151914903583C197.53631159629037 951.9952905342188 -410.53255241604523 949.9885037588176 -470.19056422814714 747.0486238894578C-529.848576040249 544.1087440200977 -19.601850136440135 213.3519613551632 235.6627074825301 10.403768117428967C490.9272651015001 -192.54442512030533 543.7866390379199 -237.0565683481026 755.0793123429073 -227.10270365166554C966.3719856478945 -217.14883895522843 1180.647244381115 -177.28577553354427 1249.867539346471 58.18231866032977C1319.0878343118266 293.65041285420375 1238.9713896695043 710.1581333060049 1087.3367281766177 903.1441484789275 "></path><path d="M1215.8728280069872 71.8550198104009C1282.3243111737283 297.90439023651993 1205.412524317099 697.751801870249 1059.843249283928 883.018376436255C914.2739742507567 1068.2849510022609 828.6457663287197 992.3536826451227 517.1403078477665 961.1345777272284C205.6348493668138 929.9154728093342 -378.11126008502845 927.9889575049492 -435.38295142464625 733.1666728303635C-492.65464276426405 538.3443881557782 -2.8177858966075746 220.81787679744116 242.23618941760378 25.987611289216147C487.29016473181537 -168.84265421900875 538.0351637107783 -211.57431171769412 740.8761300835661 -202.0186016091145C943.7170964563538 -192.4628915005349 1149.4213448402456 -154.19435061571812 1215.8728280069872 71.8550198104009C1282.3243111737283 297.90439023651993 1205.412524317099 697.751801870249 1059.843249283928 883.018376436255 "></path><path d="M1181.878055632347 85.52775147805028C1245.5607270004743 302.15839813641423 1171.8535979295375 685.3455009520712 1032.349709356082 862.8926349111603C892.8458207826263 1040.4397688702493 810.7854548573407 967.672303361325 512.2593904797609 937.7539944816765C213.73332610218097 907.835685602028 -345.69002878916785 905.9894417686589 -400.5753996563016 719.2847522888478C-455.4607705234353 532.5800628090367 13.966217308068735 228.28382275729712 248.80961031752133 41.571484978581566C483.65300332697393 -145.14085280013404 532.2836273484802 -186.09202456970752 726.6728867890683 -176.93446904898542C921.0621462296567 -167.77691352826332 1118.1953842642197 -131.10289518031385 1181.878055632347 85.52775147805028C1245.5607270004743 302.15839813641423 1171.8535979295375 685.3455009520712 1032.349709356082 862.8926349111603 "></path><path d="M1147.883344292863 99.20042211054329C1208.7972038623761 306.4123450011523 1138.2947325771324 672.9391389987372 1004.8562304633922 842.7668323509092C871.4177283496522 1012.5945257030814 792.925204421118 942.9908630423713 507.3785341469111 914.3733502009684C221.8318638727044 885.7558373595655 -313.26873645815107 883.9898649972124 -365.7677868528007 705.4027707121757C-418.2668372474504 526.8156764271389 30.750281547901295 235.74970768199682 255.38309225259513 57.15529763279062C480.01590295728874 -121.43911241641558 526.5321520213383 -160.60979845687717 712.4697045297271 -151.85039752401252C898.4072570381161 -143.09099659114793 1086.96948472335 -108.01150078006583 1147.883344292863 99.20042211054329C1208.7972038623761 306.4123450011523 1138.2947325771324 672.9391389987372 1004.8562304633922 842.7668323509092 "></path><path d="M1113.8886634709575 112.87312326061442C1172.0337112418563 310.6663223834687 1104.7358977423055 660.5328075629816 977.3627820882807 822.6410603082368C849.9896664342559 984.749313053492 775.0649845024734 918.3094532409959 502.4977083316396 890.9927364378386C229.93043216080582 863.6760196346813 -280.84741360955616 861.9903187433442 -330.9601435317217 691.5208196530818C-381.07287345388727 521.0513205628195 47.53437630531221 243.21562312427466 261.95660470524706 72.7391408045778C476.3788331051819 -97.737341515119 520.7807072117746 -135.1275418264687 698.266552787964 -126.76629548146155C875.7523983641531 -118.40504913645441 1055.7436157000586 -84.92007586223968 1113.8886634709575 112.87312326061442C1172.0337112418563 310.6663223834687 1104.7358977423055 660.5328075629816 977.3627820882807 822.6410603082368 "></path><path d="M1079.8940131666297 126.54582441068567C1135.2702491389146 314.9202997657849 1071.1770934250565 648.1264761272257 949.8693642307474 802.5152882655639C828.561635036438 956.9041004039022 757.2047951014072 893.6280434396203 497.6169130339463 867.6121226747086C238.0290309664855 841.596201909797 -248.42606024338306 839.9907724894758 -296.1524696930646 677.6388685939878C-343.8788791427461 515.2869646985 64.31850158030102 250.6815385665525 268.5301476754771 88.3229839763651C472.7417937706532 -74.03557061382241 515.029292919789 -109.64528519606017 684.063431563779 -101.68219343891053C853.0975702077687 -93.71910168176089 1024.5177771943452 -61.82865094441354 1079.8940131666297 126.54582441068567C1135.2702491389146 314.9202997657849 1071.1770934250565 648.1264761272257 949.8693642307474 802.5152882655639 "></path><path d="M1045.8992407919898 140.2185255607568C1098.50666496566 319.17427714810105 1037.6181670374951 635.7201446914698 922.3758243029015 782.3895162228912C807.1334815683076 929.0588877543125 739.3444836300282 868.9466336382447 492.7359956659402 844.2315089115787C246.12750770185266 819.5163841849126 -216.00482894752253 817.9912262356074 -261.34491792471994 663.756917534894C-306.68500690191735 509.52260883418046 81.10250478497733 258.1474540088303 275.10356857539466 103.90682714815227C469.104632365812 -50.33379971252583 509.2777565574911 -84.1630285656517 669.8601882692815 -76.59809139635956C830.4426199810716 -69.03315422706737 993.2918166183192 -38.73722602658739 1045.8992407919898 140.2185255607568C1098.50666496566 319.17427714810105 1037.6181670374951 635.7201446914698 922.3758243029015 782.3895162228912 "></path><path d="M1011.9046210052402 153.89125722840618C1061.7432333802965 323.4282850479955 1004.0593932378242 623.3138437732923 894.882436962946 762.2637746977966C785.7054806880676 901.213705622301 721.4843247465396 844.2652543544473 487.855230885825 820.8509256660268C254.22613702511035 797.4365969776063 -183.5834450637713 795.9917104993174 -226.53721356848467 649.8749969933783C-269.49098207319804 503.75828348743914 97.88666057754438 265.6133999686863 281.67714206320284 119.49070083751758C465.4676235488614 -26.631998293651122 503.5263727830836 -58.680741417665104 655.6570975626746 -51.513958836230415C807.7878223422654 -44.34717625479573 962.0660086301841 -15.645770591183123 1011.9046210052402 153.89125722840618C1061.7432333802965 323.4282850479955 1004.0593932378242 623.3138437732923 894.882436962946 762.2637746977966 "></path><path d="M977.9098791481783 167.5639583784773C1024.9796797246204 327.68226243031165 970.500497367841 610.9075123375363 867.3889275526783 742.1380026551237C764.2773577375151 873.3684929727115 703.624043792739 819.5838445530717 482.9743440353973 797.4703119028968C262.32464427805553 775.3567792527217 -151.16218325033265 773.992164245449 -191.7296312825619 635.993045934284C-232.29707931479118 497.9939276231195 114.67069429979881 273.0793154109642 288.2505934806986 135.07454400930476C461.8304926615982 -2.9302273923545386 497.77486693836363 -33.19848478725663 641.453884785755 -26.42985679367945C785.1329026331464 -19.661228800102208 930.8400785717363 7.445654326643023 977.9098791481783 167.5639583784773C1024.9796797246204 327.68226243031165 970.500497367841 610.9075123375363 867.3889275526783 742.1380026551237 "></path><path d="M943.9151678086944 181.23665952854856C988.2161565865222 331.93623981262795 936.9416320154357 598.5011809017805 839.8954486599885 722.0122306124513C742.849265304541 845.523280323122 685.7637933565161 794.9024347516963 478.0934877025476 774.0896981397668C270.42318204857906 753.2769615278376 -118.74089091931586 751.9926179915806 -156.92201847906102 622.1110948751902C-195.10314603880624 492.22957175880003 131.45475853963148 280.54523085324195 294.8240754157723 150.65838718109205C458.19339229191326 20.771543508942045 492.0233916112219 -7.71622815684816 627.2507025264138 -1.3457547511284247C762.4780134416055 5.024718654591311 899.6141790308668 30.53707924446917 943.9151678086944 181.23665952854856C988.2161565865222 331.93623981262795 936.9416320154357 598.5011809017805 839.8954486599885 722.0122306124513 "></path><path d="M909.9204564692106 194.9093606786197C951.4526334484242 336.1902171949441 903.3827666630307 586.0948494660247 812.4019697672989 701.8864585697784C721.4211728715668 817.678067673532 667.9035429202936 770.2210249503207 473.212631369698 750.7090843766368C278.5217198191024 731.1971438029532 -86.31959858829902 729.9930717377124 -122.11440567556014 608.2291438160963C-157.90921276282126 486.4652158944805 148.23882277946404 288.0111462955199 301.397557350846 166.24223035287923C454.5562919222282 44.473314410238686 486.27191628408013 17.76602847356031 613.0475202670723 23.738347291422542C739.8231242500649 29.71066610928483 868.3882794899973 53.628504162295314 909.9204564692106 194.9093606786197C951.4526334484242 336.1902171949441 903.3827666630307 586.0948494660247 812.4019697672989 701.8864585697784 "></path><path d="M875.9258061648832 208.58209234626906C914.6891713454825 340.44422509483843 869.8239623457816 573.6885485478471 784.9085519097653 681.7607170446838C699.9931414737489 789.8328855415207 650.0433535192269 745.5396456665233 468.33183607200453 727.328501131085C286.62031862478193 709.1173565956469 -53.89824522212598 707.9935560014221 -87.306731836903 594.3472232745805C-120.71521845168007 480.70089054773905 165.02294805445285 295.47709225537585 307.97110032107616 181.8261040422446C450.9192525876995 68.1751158291134 480.5205019920945 43.24831562154691 598.8443990428873 48.82247985155169C717.1682960936805 54.39664408155642 837.1624409842839 76.71995959769959 875.9258061648832 208.58209234626906C914.6891713454825 340.44422509483843 869.8239623457816 573.6885485478471 784.9085519097653 681.7607170446838 "></path><path d="M841.9311253429773 222.25485453149645C877.9256787249624 344.69826351231086 836.2651275109547 561.2822781472474 757.4151035346536 661.6350060371673C678.5650795583526 761.987733927087 632.1831336005826 720.8582969003039 463.45101025673307 703.9479484031114C294.7188869128836 687.0375999059187 -21.47692237353101 685.9940707827101 -52.499088515823985 580.465333250643C-83.52125465811696 474.93659571857575 181.80704281186365 302.94306873280993 314.5446127737281 197.41000824918808C447.28218273559264 91.87694776556623 474.7690571825309 68.73063328711163 584.6412473011243 73.90664292925891C694.5134374197178 79.08265257140619 805.9365719609923 99.81144555068198 841.9311253429773 222.25485453149645C877.9256787249624 344.69826351231086 836.2651275109547 561.2822781472474 757.4151035346536 661.6350060371673 "></path><path d="M807.9363529683374 235.9274946464114C841.1620945517079 348.9521798594709 802.7062011233934 548.8758856763354 729.9215636068077 641.5091729593385C657.1369260902221 734.1424602423414 614.3228221292036 696.1768260637723 458.570092888727 680.5672736048251C302.81736364825065 664.957721145878 10.944308922329526 663.9944634936855 -17.691536747479347 566.5833211563927C-46.32738241728828 469.17217881910005 198.59104601653996 310.4089231399315 321.11803367364564 212.993790385819C443.64502133075143 115.57865763170656 469.0175208202329 94.21282888236391 570.4380040066268 98.99068393665368C671.8584871930207 103.76853899094345 774.7106113849666 122.90280943335188 807.9363529683374 235.9274946464114C841.1620945517079 348.9521798594709 802.7062011233934 548.8758856763354 729.9215636068077 641.5091729593385 "></path><path d="M773.9417331815878 249.60019579648258C804.3986629663443 353.2061572417871 769.1474273237225 536.4695542405796 702.4281762668525 621.3834009166656C635.7089252099823 706.2972475927517 596.4626632457152 671.4954162623966 453.6893281086118 657.1866598416951C310.91599297150844 642.8779034209937 43.36569280608069 641.9949172398171 17.116167608755916 552.7013700972988C-9.133357588568913 463.4078229547804 215.3752018091069 317.87483858220935 327.6916071614538 228.57763355760625C440.0080125138006 139.28042853300315 463.2661370458254 119.69508551277238 556.2349133000198 124.07478597920465C649.2036895542143 128.45448644563697 743.4848033968312 145.99423435117802 773.9417331815878 249.60019579648258C804.3986629663443 353.2061572417871 769.1474273237225 536.4695542405796 702.4281762668525 621.3834009166656 "></path><path d="M739.9469913245257 263.2729274641319C767.6351093106682 357.4601651416815 735.588531453739 524.0632533224019 674.9346668565846 601.257659391571C614.28080225943 678.4520654607402 578.6023822919145 646.8140369785992 448.8084412581841 633.8060765961434C319.01450022445374 620.7981162136875 75.7869546195194 619.995401503527 51.92374989467862 538.819449555783C28.060545169837894 457.64349760803907 232.15923553136145 325.3407845420653 334.2650585789495 244.1615072469716C436.37088162653754 162.98222995187786 457.51463120110543 145.17737266075898 542.0317005231004 149.1589185393338C626.5487698450953 153.14046441790862 712.2588733383835 169.0856897865823 739.9469913245257 263.2729274641319C767.6351093106682 357.4601651416815 735.588531453739 524.0632533224019 674.9346668565846 601.257659391571 "></path><path d="M705.952279985042 276.9456286142031C730.8715861725701 361.7141425239977 702.029666101334 511.65692188664616 647.4411879638949 581.1318873488983C592.8527098264557 650.6068528111505 560.7421318556917 622.1326271772236 443.9275849253344 610.4254628330134C327.11303799497705 598.7182984888032 108.20824695053619 597.9958552496587 86.73136269817951 524.9374984966892C65.25447844582288 451.87914174371963 248.94329977119406 332.80669998434314 340.8385405140233 259.7453504187588C432.7337812568526 186.68400085317444 451.7631558739637 170.65962929116745 527.8285182637592 174.24302058188476C603.8938806535546 177.82641187260214 681.0329737975139 192.17711470440844 705.952279985042 276.9456286142031C730.8715861725701 361.7141425239977 702.029666101334 511.65692188664616 647.4411879638949 581.1318873488983 "></path><path d="M671.9575686455581 290.6183297642743C694.108063034472 365.968119906314 668.4708007489288 499.2505904508903 619.9477090712052 561.0061153062256C571.4246173934814 622.761640161561 542.881881419469 597.4512173758482 439.04672859248467 587.0448490698834C335.21157576550047 576.6384807639188 140.62953928155304 575.9963089957903 121.5389755016804 511.0555474375951C102.44841172180782 446.11478587939996 265.7273640110267 340.272615426621 347.4120224490971 275.329193590546C429.0966808871676 210.38577175447102 446.01168054682194 196.14188592157592 513.6253360044178 199.3271226244358C581.2389914620137 202.51235932729566 649.8070742566443 215.26853962223458 671.9575686455581 290.6183297642743C694.108063034472 365.968119906314 668.4708007489288 499.2505904508903 619.9477090712052 561.0061153062256 "></path><path d="M637.9628878236525 304.29103091434547C657.3445704139522 370.22209728863015 634.9119659141018 486.8442590151344 592.4542606960936 540.8803432635528C549.9965554780854 594.9164275119713 525.0216615008244 572.7698075744726 434.1659027772132 563.6642353067534C343.3101440536019 554.5586630390344 173.05086213014795 553.996762741922 156.3466188227594 497.1735963785012C139.64237551537093 440.3504300150805 282.51145876843736 347.73853086889886 353.985534901749 290.91303676233326C425.4596110350607 234.0875426557676 440.2602357372582 221.6241425519844 499.4221842626546 224.41122466698675C558.5841327880512 227.19830678198917 618.5812052333529 238.35996454006073 637.9628878236525 304.29103091434547C657.3445704139522 370.22209728863015 634.9119659141018 486.8442590151344 592.4542606960936 540.8803432635528 "></path><path d="M603.9681917429577 317.9637778407838C620.581062534643 374.4761204473136 601.3531158204858 474.43797335574584 564.9607970621929 520.7546169972474C528.5684783039001 567.0712606387488 507.16142632339086 548.0884435494643 429.28506170315256 540.2836673199906C351.4086970829144 532.4788910905172 205.47216971995385 531.9972622644209 191.15424688504936 483.29169109577447C176.83632405014492 434.58611992712815 299.29553826705904 355.2044920875439 360.5590320956119 306.49692571048763C421.8225259241648 257.7893593334314 434.5087756689055 247.10644495876005 485.2190172621024 249.49537248590497C535.9292588552994 251.88430001304988 587.3553209512723 261.45143523425406 603.9681917429577 317.9637778407838C620.581062534643 374.4761204473136 601.3531158204858 474.43797335574584 564.9607970621929 520.7546169972474 "></path><path d="M569.9735109210519 331.6364637320659C583.8175699141232 378.73008257084075 567.7942809856586 462.031626661201 537.4673486870813 500.6288296957855C507.14041638850404 539.2260327303701 489.3012064047464 523.4070184892996 424.4042358878811 516.9030382980717C359.50726537101593 510.39905810684377 237.89349256854877 509.99770075176343 225.96189020612837 469.4097247778915C214.03028784370804 428.82174880401953 316.0796330244698 362.67039227103265 367.1325445482638 322.0807536234858C418.18545607205783 281.4911149759389 428.7573308593418 272.58868633037946 471.0158655203393 274.57945926966687C513.2744001813367 276.57023220895434 556.1294519279809 284.54284489329115 569.9735109210519 331.6364637320659C583.8175699141232 378.73008257084075 567.7942809856586 462.031626661201 537.4673486870813 500.6288296957855 "></path><path d="M535.9788148403572 345.3091801409262C547.0540620348141 382.98407521194605 534.2354308920426 449.6253104842342 509.97388505318077 480.5030729119019C485.71233921431883 511.38083533956956 471.4409712273126 498.7256239467131 419.52339481382046 493.52243979373077C367.60581840032836 488.31925564074845 270.3148001583546 487.9981697566842 260.7695182684183 455.5277889775866C251.22423637848203 423.05740819848904 332.86371252309146 370.13632297209955 373.7060417421267 337.66461205406205C414.54837096116194 305.1929011360246 423.0058707909891 298.07095821957705 456.8126985197871 299.66357657100696C490.619526248585 301.25619492243686 524.9035676459002 307.63428506990635 535.9788148403572 345.3091801409262C547.0540620348141 382.98407521194605 534.2354308920426 449.6253104842342 509.97388505318077 480.5030729119019 "></path><path d="M501.9841035008734 358.9818965497864C510.29053889671604 387.23806785305135 500.6765655396374 437.21899430726745 482.48040616049093 460.3773161280182C464.28424678134456 483.5356379487689 453.58072079108996 474.04422940412667 414.6425384809708 470.14184128938984C375.7043561708517 466.23945317465314 302.73609248937146 465.998638761605 295.5771310719192 441.64585317728177C288.418169654467 417.2930675929586 349.6477767629241 377.6022536731665 380.2795236772005 353.24847048463835C410.9112705914769 328.89468729611025 417.2543954638473 323.5532301087746 442.60951626044573 324.747693872347C467.96463705704423 325.94215763591944 493.67766810503076 330.72572524652156 501.9841035008734 358.9818965497864C510.29053889671604 387.23806785305135 500.6765655396374 437.21899430726745 482.48040616049093 460.3773161280182 "></path><path d="M467.9894074201786 372.6545976998576C473.52703101740707 391.4920452353675 467.1177154460213 424.81266287151163 454.9869425265904 440.2515440853455C442.8561696071594 455.6904252991793 435.7204856136563 449.3628196027511 409.76169740691023 446.7612275262599C383.80290920016415 444.15963544976876 335.1574000791773 443.99909250773663 330.38475913420916 427.76390211818784C325.612118189241 411.52871172863905 366.4318562615457 385.06816911544433 386.85302087106334 368.8323136564256C407.27418548058097 352.59645819740683 411.50293539549455 349.03548673918306 428.40634925989355 349.831795914898C445.3097631242925 350.62810509061296 462.4517838229501 353.8171501643477 467.9894074201786 372.6545976998576C473.52703101740707 391.4920452353675 467.1177154460213 424.81266287151163 454.9869425265904 440.2515440853455 "></path><path d="M433.99471133948384 386.3272988499288C436.7635231380981 395.74602261768376 433.5588653524052 412.4063314357558 427.4934788926897 420.12577204267274C421.42809243297427 427.84521264958966 417.8602504362227 424.68140980137554 404.88085633284965 423.38061376313C391.90146222947664 422.0798177248844 367.5787076689832 421.99954625386835 365.1923871964991 413.8819510590939C362.80606672401507 405.76435586431955 383.2159357601674 392.53408455772217 393.4265180649262 384.41615682821276C403.637100369685 376.2982290987034 405.7514753271418 374.5177433695915 414.2031822593413 374.915897957449C422.6548891915408 375.3140525453065 431.2258995408696 376.90857508217385 433.99471133948384 386.3272988499288C436.7635231380981 395.74602261768376 433.5588653524052 412.4063314357558 427.4934788926897 420.12577204267274 "></path></g></svg>